# xmcd
#
# Track frame offsets:
#	225
#	13805
#	29181
#	39755
#	48155
#	62980
#	79694
#
# Disc length: 1279 seconds
#
# Revision: 0
# Processed by: cddbd v1.4PL0 Copyright (c) Steve Scherf et al.
# Submitted via: dBpowerAMP V4.0
#
DISCID=5504fc07
DTITLE=Reverend Doctor William Grace - Love and Marriage EP
DYEAR=2002
DGENRE=Country
TTITLE0=When you're gone
TTITLE1=What is love all about
TTITLE2=Central station
TTITLE3=Sleep on it tonight
TTITLE4=Mary Lou
TTITLE5=Three years to pay
TTITLE6=Childhood
EXTD=
EXTT0=
EXTT1=
EXTT2=
EXTT3=
EXTT4=
EXTT5=
EXTT6=
PLAYORDER=
